<?xml version="1.0" standalone="no"?>
<!DOCTYPE svg PUBLIC "-//W3C//DTD SVG 20010904//EN"
 "http://www.w3.org/TR/2001/REC-SVG-20010904/DTD/svg10.dtd">
<svg version="1.0" xmlns="http://www.w3.org/2000/svg"
 width="600.000000pt" height="600.000000pt" viewBox="0 0 600.000000 600.000000"
 preserveAspectRatio="xMidYMid meet">
<metadata>
Created by potrace 1.11, written by Peter Selinger 2001-2013
</metadata>
<g transform="translate(0.000000,600.000000) scale(0.100000,-0.100000)"
fill="#000000" stroke="none">
<path d="M2404 5533 c-60 -109 -125 -227 -145 -263 -65 -119 -189 -345 -199
-360 -5 -8 -23 -41 -40 -73 -17 -32 -51 -94 -75 -137 -25 -44 -45 -81 -45 -84
0 -3 -15 -31 -34 -63 -18 -32 -49 -87 -68 -123 -19 -36 -101 -184 -180 -330
-80 -146 -158 -290 -174 -320 -16 -30 -31 -57 -34 -60 -3 -3 -18 -30 -33 -60
-16 -30 -39 -73 -51 -95 -12 -22 -65 -119 -118 -215 -52 -96 -107 -195 -120
-220 -29 -52 -434 -794 -486 -890 -19 -36 -54 -99 -77 -140 -23 -41 -66 -120
-95 -175 -29 -55 -56 -104 -60 -110 -4 -5 -24 -41 -45 -80 -20 -38 -50 -92
-65 -120 -49 -89 -152 -278 -187 -345 -20 -36 -44 -79 -55 -97 l-19 -32 40
-76 c81 -149 125 -231 147 -270 13 -22 33 -60 46 -85 13 -25 26 -46 31 -48 4
-2 7 -8 7 -13 0 -9 138 -267 160 -299 6 -8 13 -22 16 -31 6 -18 -49 -17 1614
-24 l725 -3 209 421 c115 232 209 426 209 432 0 5 -25 53 -55 105 -30 52 -68
120 -84 150 -17 30 -60 107 -96 170 -36 64 -85 151 -108 195 -24 44 -53 96
-65 115 -12 19 -24 43 -28 53 -6 15 -27 17 -242 17 -129 0 -235 3 -235 6 0 3
9 19 21 35 11 16 17 29 13 29 -4 0 0 8 8 18 8 9 31 46 50 82 63 114 90 163
153 275 35 61 75 133 90 160 15 28 65 115 110 195 45 80 123 220 174 312 52
92 97 165 102 163 4 -3 14 -18 22 -33 7 -15 25 -47 39 -72 14 -25 130 -238
259 -475 128 -236 237 -431 241 -433 4 -2 8 -11 8 -21 0 -9 4 -21 9 -26 6 -6
54 -91 109 -190 114 -207 118 -215 265 -475 60 -107 123 -220 140 -250 17 -30
41 -72 54 -92 13 -21 23 -40 23 -42 0 -3 14 -29 32 -58 17 -29 36 -62 42 -73
17 -30 206 -358 216 -375 37 -59 160 -273 160 -279 0 -3 7 -15 16 -26 14 -19
28 -20 464 -22 352 -1 451 1 459 11 6 7 51 91 99 187 49 96 143 280 209 409
66 129 119 242 117 250 -1 8 -57 114 -124 235 -67 121 -138 249 -158 285 -20
36 -60 107 -89 159 -29 51 -53 97 -53 101 0 4 -7 13 -15 20 -9 7 -13 15 -10
18 3 3 -1 12 -9 21 -7 9 -35 57 -61 106 -26 50 -51 95 -55 100 -4 6 -24 42
-45 80 -85 156 -99 182 -122 217 -13 21 -23 40 -23 43 0 2 -41 78 -91 167 -51
90 -104 186 -119 213 -47 88 -93 170 -100 180 -4 6 -27 46 -50 90 -42 76 -255
461 -297 535 -11 19 -41 76 -68 125 -26 50 -51 95 -55 100 -4 6 -22 37 -40 70
-39 72 -68 123 -127 230 -25 44 -59 105 -75 135 -17 30 -43 78 -58 105 -15 28
-69 124 -119 215 -50 91 -97 176 -105 190 -85 152 -226 404 -245 440 -13 25
-39 71 -57 103 -19 32 -34 62 -34 68 0 5 -4 9 -9 9 -5 0 -11 6 -13 14 -2 7
-28 59 -58 115 l-55 101 -471 0 -471 0 -109 -197z m3239 -4400 c-7 -2 -19 -2
-25 0 -7 3 -2 5 12 5 14 0 19 -2 13 -5z m80 0 c-7 -2 -19 -2 -25 0 -7 3 -2 5
12 5 14 0 19 -2 13 -5z m60 0 c-7 -2 -19 -2 -25 0 -7 3 -2 5 12 5 14 0 19 -2
13 -5z m70 0 c-7 -2 -21 -2 -30 0 -10 3 -4 5 12 5 17 0 24 -2 18 -5z m50 0
c-7 -2 -19 -2 -25 0 -7 3 -2 5 12 5 14 0 19 -2 13 -5z m74 1 c-3 -3 -12 -4
-19 -1 -8 3 -5 6 6 6 11 1 17 -2 13 -5z m-904 -49 c-3 -9 -8 -14 -10 -11 -3 3
-2 9 2 15 9 16 15 13 8 -4z m-52 -102 c-12 -20 -14 -14 -5 12 4 9 9 14 11 11
3 -2 0 -13 -6 -23z"/>
</g>
</svg>
